<mxfile host="app.diagrams.net" agent="Mozilla/5.0 (Windows NT 10.0; Win64; x64) AppleWebKit/537.36 (KHTML, like Gecko) Chrome/136.0.0.0 Safari/537.36" version="27.1.4">
  <diagram name="C4-Level4-Code" id="c4acf3e9-155e-7222-9cf6-157b1a14988f">
    <mxGraphModel dx="1809" dy="1110" grid="1" gridSize="10" guides="1" tooltips="1" connect="1" arrows="1" fold="1" page="1" pageScale="1" pageWidth="1169" pageHeight="827" math="0" shadow="0">
      <root>
        <mxCell id="0" />
        <mxCell id="1" parent="0" />
        <mxCell id="appClass" value="&lt;p style=&quot;margin:0px;margin-top:4px;text-align:center;&quot;&gt;&lt;b&gt;App&lt;/b&gt;&lt;/p&gt;&lt;hr size=&quot;1&quot;&gt;&lt;p style=&quot;margin:0px;margin-left:4px;&quot;&gt;+ express: Express&lt;br&gt;+ clientRoutes: Router&lt;br&gt;+ sequelize: Sequelize&lt;/p&gt;&lt;hr size=&quot;1&quot;&gt;&lt;p style=&quot;margin:0px;margin-left:4px;&quot;&gt;+ start(): void&lt;/p&gt;" style="verticalAlign=top;align=left;overflow=fill;fontSize=12;fontFamily=Helvetica;html=1;fillColor=#f8cecc;strokeColor=#b85450;" parent="1" vertex="1">
          <mxGeometry x="40" y="80" width="180" height="170" as="geometry" />
        </mxCell>
        <mxCell id="routesClass" value="&lt;p style=&quot;margin:0px;margin-top:4px;text-align:center;&quot;&gt;&lt;b&gt;ClientRoutes&lt;/b&gt;&lt;/p&gt;&lt;hr size=&quot;1&quot;&gt;&lt;p style=&quot;margin:0px;margin-left:4px;&quot;&gt;+ router: Router&lt;/p&gt;&lt;hr size=&quot;1&quot;&gt;&lt;p style=&quot;margin:0px;margin-left:4px;&quot;&gt;+ GET /clients&lt;br&gt;+ GET /clients/count&lt;br&gt;+ GET /clients/name/:name&lt;br&gt;+ GET /clients/:id&lt;br&gt;+ POST /clients&lt;br&gt;+ PUT /clients/:id&lt;br&gt;+ DELETE /clients/:id&lt;/p&gt;" style="verticalAlign=top;align=left;overflow=fill;fontSize=12;fontFamily=Helvetica;html=1;fillColor=#d5e8d4;strokeColor=#82b366;" parent="1" vertex="1">
          <mxGeometry x="310" y="80" width="220" height="170" as="geometry" />
        </mxCell>
        <mxCell id="controllerClass" value="&lt;p style=&quot;margin:0px;margin-top:4px;text-align:center;&quot;&gt;&lt;b&gt;ClientController&lt;/b&gt;&lt;/p&gt;&lt;hr size=&quot;1&quot;&gt;&lt;p style=&quot;margin:0px;margin-left:4px;&quot;&gt;&lt;/p&gt;&lt;hr size=&quot;1&quot;&gt;&lt;p style=&quot;margin:0px;margin-left:4px;&quot;&gt;+ list(req, res): void&lt;br&gt;+ findByID(req, res): void&lt;br&gt;+ findByName(req, res): void&lt;br&gt;+ count(req, res): void&lt;br&gt;+ create(req, res): void&lt;br&gt;+ update(req, res): void&lt;br&gt;+ del(req, res): void&lt;/p&gt;" style="verticalAlign=top;align=left;overflow=fill;fontSize=12;fontFamily=Helvetica;html=1;fillColor=#d5e8d4;strokeColor=#82b366;" parent="1" vertex="1">
          <mxGeometry x="630" y="80" width="200" height="170" as="geometry" />
        </mxCell>
        <mxCell id="serviceClass" value="&lt;p style=&quot;margin:0px;margin-top:4px;text-align:center;&quot;&gt;&lt;b&gt;ClientService&lt;/b&gt;&lt;/p&gt;&lt;hr size=&quot;1&quot;&gt;&lt;p style=&quot;margin:0px;margin-left:4px;&quot;&gt;&lt;/p&gt;&lt;hr size=&quot;1&quot;&gt;&lt;p style=&quot;margin:0px;margin-left:4px;&quot;&gt;+ listAll(): Promise&lt;br&gt;+ findByID(id): Promise&lt;br&gt;+ findByName(name): Promise&lt;br&gt;+ create(data): Promise&lt;br&gt;+ save(data): Promise&lt;br&gt;+ update(id, data): Promise&lt;br&gt;+ del(id): Promise&lt;br&gt;+ count(): Promise&lt;/p&gt;" style="verticalAlign=top;align=left;overflow=fill;fontSize=12;fontFamily=Helvetica;html=1;fillColor=#fff2cc;strokeColor=#d6b656;" parent="1" vertex="1">
          <mxGeometry x="940" y="80" width="200" height="170" as="geometry" />
        </mxCell>
        <mxCell id="modelClass" value="&lt;p style=&quot;margin:0px;margin-top:4px;text-align:center;&quot;&gt;&lt;b&gt;ClientModel&lt;/b&gt;&lt;/p&gt;&lt;hr size=&quot;1&quot;&gt;&lt;p style=&quot;margin:0px;margin-left:4px;&quot;&gt;+ id: INTEGER&lt;br&gt;+ name: STRING&lt;br&gt;+ email: STRING&lt;br&gt;+ createdAt: DATE&lt;br&gt;+ updatedAt: DATE&lt;/p&gt;&lt;hr size=&quot;1&quot;&gt;&lt;p style=&quot;margin:0px;margin-left:4px;&quot;&gt;+ findAll(): Promise&lt;br&gt;+ findByPk(id): Promise&lt;br&gt;+ create(data): Promise&lt;br&gt;+ update(data): Promise&lt;br&gt;+ destroy(): Promise&lt;br&gt;+ count(): Promise&lt;/p&gt;" style="verticalAlign=top;align=left;overflow=fill;fontSize=12;fontFamily=Helvetica;html=1;fillColor=#e1d5e7;strokeColor=#9673a6;" parent="1" vertex="1">
          <mxGeometry x="940" y="360" width="200" height="210" as="geometry" />
        </mxCell>
        <mxCell id="databaseClass" value="&lt;p style=&quot;margin:0px;margin-top:4px;text-align:center;&quot;&gt;&lt;b&gt;Database&lt;/b&gt;&lt;/p&gt;&lt;hr size=&quot;1&quot;&gt;&lt;p style=&quot;margin:0px;margin-left:4px;&quot;&gt;+ sequelize: Sequelize&lt;br&gt;+ dialect: sqlite&lt;br&gt;+ storage: ./data/db.sqlite&lt;/p&gt;&lt;hr size=&quot;1&quot;&gt;&lt;p style=&quot;margin:0px;margin-left:4px;&quot;&gt;+ sync(): Promise&lt;/p&gt;" style="verticalAlign=top;align=left;overflow=fill;fontSize=12;fontFamily=Helvetica;html=1;fillColor=#dae8fc;strokeColor=#6c8ebf;" parent="1" vertex="1">
          <mxGeometry x="40" y="390" width="180" height="170" as="geometry" />
        </mxCell>
        <mxCell id="rel1" value="uses" style="endArrow=open;endSize=12;dashed=1;html=1;strokeWidth=2;" parent="1" source="appClass" target="routesClass" edge="1">
          <mxGeometry width="160" relative="1" as="geometry">
            <mxPoint x="230" y="130" as="sourcePoint" />
            <mxPoint x="260" y="130" as="targetPoint" />
          </mxGeometry>
        </mxCell>
        <mxCell id="rel2" value="uses" style="endArrow=open;endSize=12;dashed=1;html=1;strokeWidth=2;" parent="1" source="appClass" target="databaseClass" edge="1">
          <mxGeometry width="160" relative="1" as="geometry">
            <mxPoint x="130" y="200" as="sourcePoint" />
            <mxPoint x="280" y="480" as="targetPoint" />
          </mxGeometry>
        </mxCell>
        <mxCell id="rel3" value="routes to" style="endArrow=open;endSize=12;dashed=1;html=1;strokeWidth=2;" parent="1" source="routesClass" target="controllerClass" edge="1">
          <mxGeometry width="160" relative="1" as="geometry">
            <mxPoint x="480" y="150" as="sourcePoint" />
            <mxPoint x="500" y="150" as="targetPoint" />
          </mxGeometry>
        </mxCell>
        <mxCell id="rel4" value="calls" style="endArrow=open;endSize=12;dashed=1;html=1;strokeWidth=2;" parent="1" source="controllerClass" target="serviceClass" edge="1">
          <mxGeometry width="160" relative="1" as="geometry">
            <mxPoint x="720" y="150" as="sourcePoint" />
            <mxPoint x="740" y="150" as="targetPoint" />
          </mxGeometry>
        </mxCell>
        <mxCell id="rel5" value="uses" style="endArrow=open;endSize=12;dashed=1;html=1;strokeWidth=2;" parent="1" source="serviceClass" target="modelClass" edge="1">
          <mxGeometry width="160" relative="1" as="geometry">
            <mxPoint x="850" y="240" as="sourcePoint" />
            <mxPoint x="610" y="280" as="targetPoint" />
          </mxGeometry>
        </mxCell>
        <mxCell id="rel6" value="connects via" style="endArrow=open;endSize=12;dashed=1;html=1;strokeWidth=2;" parent="1" source="modelClass" target="databaseClass" edge="1">
          <mxGeometry width="160" relative="1" as="geometry">
            <mxPoint x="520" y="360" as="sourcePoint" />
            <mxPoint x="460" y="480" as="targetPoint" />
          </mxGeometry>
        </mxCell>
      </root>
    </mxGraphModel>
  </diagram>
</mxfile>
